<svg xmlns="http://www.w3.org/2000/svg" width="24" height="24" fill="none" viewBox="0 0 24 24" id="pointer-">
  <g clip-path="url(#clip0_4093_17584)" fill="#000000" class="color000000 svgShape">
    <mask id="mask0_4093_17584" width="24" height="24" x="0" y="0" maskUnits="userSpaceOnUse" style="mask-type:luminance">
      <path fill="#fff" d="M24 0H0V24H24V0Z"></path>
    </mask>
    <g mask="url(#mask0_4093_17584)" fill="#000000" class="color000000 svgShape">
      <path fill="#010101" d="M4.95004 22.3499C4.33004 22.3499 3.73004 22.11 3.27004 21.65C2.56004 20.94 2.37004 19.8899 2.79004 18.9699L10.09 3.03994C10.49 2.16994 11.33 1.60996 12.29 1.64996C13.25 1.65996 14.08 2.21993 14.45 3.08993L21.24 18.9499C21.64 19.8699 21.42 20.92 20.69 21.61C19.96 22.3 18.91 22.4699 18 22.0299L12.28 19.2499L5.94004 22.1299C5.62004 22.2799 5.28004 22.3499 4.95004 22.3499ZM12.26 3.64996C12.17 3.64996 12 3.67996 11.91 3.86996L4.61004 19.8C4.51004 20.01 4.62004 20.1599 4.69004 20.2299C4.76004 20.2999 4.91004 20.3999 5.12004 20.3099L11.89 17.2299C12.16 17.1099 12.47 17.11 12.74 17.24L18.89 20.2299C19.1 20.3299 19.25 20.2299 19.32 20.1599C19.39 20.0899 19.5 19.9399 19.41 19.7299L12.62 3.86996C12.52 3.67996 12.38 3.66996 12.26 3.64996Z" class="color010101 svgShape"></path>
    </g>
  </g>
  <defs>
    <clipPath id="clip0_4093_17584">
      <rect width="24" height="24" fill="#ffffff" class="colorffffff svgShape"></rect>
    </clipPath>
  </defs>
</svg>
